<?xml version="1.0" encoding="UTF-8" standalone="no"?>
<svg
   xmlns:dc="http://purl.org/dc/elements/1.1/"
   xmlns:cc="http://creativecommons.org/ns#"
   xmlns:rdf="http://www.w3.org/1999/02/22-rdf-syntax-ns#"
   xmlns:svg="http://www.w3.org/2000/svg"
   xmlns="http://www.w3.org/2000/svg"
   xmlns:sodipodi="http://sodipodi.sourceforge.net/DTD/sodipodi-0.dtd"
   xmlns:inkscape="http://www.inkscape.org/namespaces/inkscape"
   inkscape:export-ydpi="576"
   inkscape:export-xdpi="576"
   inkscape:export-filename="D:\Project Real\adnan #2.2\export Filled line\PNG\12 - Hotel Bell.png"
   width="64pt"
   height="64pt"
   viewBox="0 0 22.577778 22.577778"
   version="1.1"
   id="svg831"
   inkscape:version="1.0 (4035a4fb49, 2020-05-01)"
   sodipodi:docname="13 - Laundry.svg">
  <defs
     id="defs825">
    <pattern
       id="EMFhbasepattern"
       patternUnits="userSpaceOnUse"
       width="6"
       height="6"
       x="0"
       y="0" />
    <pattern
       id="EMFhbasepattern-9"
       patternUnits="userSpaceOnUse"
       width="6"
       height="6"
       x="0"
       y="0" />
    <pattern
       id="EMFhbasepattern-0"
       patternUnits="userSpaceOnUse"
       width="6"
       height="6"
       x="0"
       y="0" />
    <pattern
       id="EMFhbasepattern-7"
       patternUnits="userSpaceOnUse"
       width="6"
       height="6"
       x="0"
       y="0" />
    <pattern
       id="EMFhbasepattern-2"
       patternUnits="userSpaceOnUse"
       width="6"
       height="6"
       x="0"
       y="0" />
    <pattern
       id="EMFhbasepattern-98"
       patternUnits="userSpaceOnUse"
       width="6"
       height="6"
       x="0"
       y="0" />
    <pattern
       id="EMFhbasepattern-6"
       patternUnits="userSpaceOnUse"
       width="6"
       height="6"
       x="0"
       y="0" />
    <pattern
       id="EMFhbasepattern-01"
       patternUnits="userSpaceOnUse"
       width="6"
       height="6"
       x="0"
       y="0" />
    <pattern
       id="EMFhbasepattern-07"
       patternUnits="userSpaceOnUse"
       width="6"
       height="6"
       x="0"
       y="0" />
    <pattern
       id="EMFhbasepattern-8"
       patternUnits="userSpaceOnUse"
       width="6"
       height="6"
       x="0"
       y="0" />
    <pattern
       id="EMFhbasepattern-4"
       patternUnits="userSpaceOnUse"
       width="6"
       height="6"
       x="0"
       y="0" />
    <pattern
       id="EMFhbasepattern-40"
       patternUnits="userSpaceOnUse"
       width="6"
       height="6"
       x="0"
       y="0" />
    <pattern
       id="EMFhbasepattern-08"
       patternUnits="userSpaceOnUse"
       width="6"
       height="6"
       x="0"
       y="0" />
    <pattern
       id="EMFhbasepattern-04"
       patternUnits="userSpaceOnUse"
       width="6"
       height="6"
       x="0"
       y="0" />
    <pattern
       id="EMFhbasepattern-014"
       patternUnits="userSpaceOnUse"
       width="6"
       height="6"
       x="0"
       y="0" />
    <pattern
       id="EMFhbasepattern-27"
       patternUnits="userSpaceOnUse"
       width="6"
       height="6"
       x="0"
       y="0" />
    <pattern
       id="EMFhbasepattern-09"
       patternUnits="userSpaceOnUse"
       width="6"
       height="6"
       x="0"
       y="0" />
    <pattern
       id="EMFhbasepattern-5"
       patternUnits="userSpaceOnUse"
       width="6"
       height="6"
       x="0"
       y="0" />
    <pattern
       id="EMFhbasepattern-018"
       patternUnits="userSpaceOnUse"
       width="6"
       height="6"
       x="0"
       y="0" />
  </defs>
  <sodipodi:namedview
     id="base"
     pagecolor="#ffffff"
     bordercolor="#666666"
     borderopacity="1.0"
     inkscape:pageopacity="0.0"
     inkscape:pageshadow="2"
     inkscape:zoom="6.2578125"
     inkscape:cx="42.666667"
     inkscape:cy="42.666667"
     inkscape:document-units="pt"
     inkscape:current-layer="layer1"
     showgrid="false"
     units="pt"
     inkscape:window-width="1366"
     inkscape:window-height="706"
     inkscape:window-x="-8"
     inkscape:window-y="-8"
     inkscape:window-maximized="1"
     inkscape:pagecheckerboard="true"
     inkscape:showpageshadow="false"
     inkscape:object-paths="true"
     inkscape:snap-intersection-paths="true"
     inkscape:snap-smooth-nodes="true"
     inkscape:snap-midpoints="true"
     showguides="true"
     inkscape:snap-bbox="true"
     inkscape:bbox-nodes="true"
     inkscape:snap-nodes="false"
     inkscape:snap-global="true"
     inkscape:document-rotation="0">
    <inkscape:grid
       type="xygrid"
       id="grid1378" />
    <sodipodi:guide
       position="0.97013831,21.607643"
       orientation="78.000048,0"
       id="guide1380"
       inkscape:locked="false" />
    <sodipodi:guide
       position="0.97013831,0.97013129"
       orientation="0,78.000005"
       id="guide1382"
       inkscape:locked="false" />
    <sodipodi:guide
       position="21.607639,0.97013129"
       orientation="-78.000048,0"
       id="guide1384"
       inkscape:locked="false" />
    <sodipodi:guide
       position="21.607639,21.607643"
       orientation="0,-78.000005"
       id="guide1386"
       inkscape:locked="false" />
  </sodipodi:namedview>
  <metadata
     id="metadata828">
    <rdf:RDF>
      <cc:Work
         rdf:about="">
        <dc:format>image/svg+xml</dc:format>
        <dc:type
           rdf:resource="http://purl.org/dc/dcmitype/StillImage" />
        <dc:title></dc:title>
      </cc:Work>
    </rdf:RDF>
  </metadata>
  <g
     inkscape:label="Icon"
     inkscape:groupmode="layer"
     id="layer1"
     transform="translate(0,-274.42223)">
    <g
       transform="matrix(1.2580578,0,0,1.2580578,0.63606242,-38.905903)"
       style="display:inline;stroke-width:0.794876"
       id="g1254">
      <g
         style="stroke-width:0.794876"
         id="g1179">
        <path
           sodipodi:nodetypes="scccccccscccscsccs"
           style="color:#000000;font-style:normal;font-variant:normal;font-weight:normal;font-stretch:normal;font-size:medium;line-height:normal;font-family:sans-serif;font-variant-ligatures:normal;font-variant-position:normal;font-variant-caps:normal;font-variant-numeric:normal;font-variant-alternates:normal;font-variant-east-asian:normal;font-feature-settings:normal;font-variation-settings:normal;text-indent:0;text-align:start;text-decoration:none;text-decoration-line:none;text-decoration-style:solid;text-decoration-color:#000000;letter-spacing:normal;word-spacing:normal;text-transform:none;writing-mode:lr-tb;direction:ltr;text-orientation:mixed;dominant-baseline:auto;baseline-shift:baseline;text-anchor:start;white-space:normal;shape-padding:0;shape-margin:0;inline-size:0;clip-rule:nonzero;display:inline;overflow:visible;visibility:visible;isolation:auto;mix-blend-mode:normal;color-interpolation:sRGB;color-interpolation-filters:linearRGB;solid-color:#000000;solid-opacity:1;vector-effect:none;fill:#dc1c4b;fill-opacity:1;fill-rule:nonzero;stroke:none;stroke-width:0.420622;stroke-linecap:round;stroke-linejoin:round;stroke-miterlimit:1.5;stroke-dasharray:none;stroke-dashoffset:0;stroke-opacity:1;color-rendering:auto;image-rendering:auto;shape-rendering:auto;text-rendering:auto;enable-background:accumulate;stop-color:#000000"
           d="m 2.5589605,250.3737 c -0.1221068,0.23936 -0.1609486,0.48723 -0.1697068,0.6562 -9.7e-6,9.7e-4 -9.7e-6,0.003 0,0.004 -0.015812,0.44231 0.1187584,0.75186 0.250789,1.02956 -0.084599,0.13662 -0.1751717,0.2788 -0.1847919,0.39598 -0.050574,0.45188 0.3424175,0.83895 0.8296779,0.83722 h 2.5097756 c 0.00126,1e-5 0.00252,1e-5 0.00377,0 0.2981986,-0.003 0.5513859,-0.17214 0.6825985,-0.39598 0.1312128,-0.22384 0.1768091,-0.48603 0.1961057,-0.76368 9.8e-6,-9.7e-4 9.8e-6,-0.003 0,-0.004 0.017967,-0.32568 -0.085335,-0.65312 -0.2375895,-0.95601 0.047769,-0.0644 0.099461,-0.12515 0.1395368,-0.21873 0.054376,-0.12698 0.072852,-0.29912 0.020742,-0.46576 -0.048964,-0.20239 -0.1580547,-0.37371 -0.3092436,-0.47329 -0.1541501,-0.10154 -0.3303655,-0.13206 -0.495921,-0.13011 l -2.6854305,-9.7e-4 c -0.1775372,-9.7e-4 -0.428429,0.24664 -0.5503167,0.48558 z"
           id="path1403" />
        <path
           sodipodi:nodetypes="scccccccscccscsccs"
           style="color:#000000;font-style:normal;font-variant:normal;font-weight:normal;font-stretch:normal;font-size:medium;line-height:normal;font-family:sans-serif;font-variant-ligatures:normal;font-variant-position:normal;font-variant-caps:normal;font-variant-numeric:normal;font-variant-alternates:normal;font-variant-east-asian:normal;font-feature-settings:normal;font-variation-settings:normal;text-indent:0;text-align:start;text-decoration:none;text-decoration-line:none;text-decoration-style:solid;text-decoration-color:#000000;letter-spacing:normal;word-spacing:normal;text-transform:none;writing-mode:lr-tb;direction:ltr;text-orientation:mixed;dominant-baseline:auto;baseline-shift:baseline;text-anchor:start;white-space:normal;shape-padding:0;shape-margin:0;inline-size:0;clip-rule:nonzero;display:inline;overflow:visible;visibility:visible;isolation:auto;mix-blend-mode:normal;color-interpolation:sRGB;color-interpolation-filters:linearRGB;solid-color:#000000;solid-opacity:1;vector-effect:none;fill:#c9db53;fill-opacity:1;fill-rule:nonzero;stroke:none;stroke-width:0.420622;stroke-linecap:round;stroke-linejoin:round;stroke-miterlimit:1.5;stroke-dasharray:none;stroke-dashoffset:0;stroke-opacity:1;color-rendering:auto;image-rendering:auto;shape-rendering:auto;text-rendering:auto;enable-background:accumulate;stop-color:#000000"
           d="m 7.8683264,250.385 c -0.1209749,0.23714 -0.1594565,0.48271 -0.1681336,0.65012 -9.6e-6,9.5e-4 -9.6e-6,0.003 0,0.004 -0.015665,0.43821 0.1176574,0.74489 0.2484639,1.02002 -0.083815,0.13535 -0.1735476,0.27621 -0.1830786,0.3923 -0.050176,0.44828 0.340238,0.83219 0.8238541,0.82946 h 2.4865068 c 6.38e-4,0 0.0012,0 0.0019,0 0.295434,-0.003 0.548142,-0.17054 0.678138,-0.3923 0.129996,-0.22178 0.17517,-0.48153 0.194288,-0.75661 9e-6,-9.6e-4 9e-6,-0.003 0,-0.004 0.0178,-0.32266 -0.08454,-0.64707 -0.235387,-0.94715 0.04728,-0.0638 0.09672,-0.1241 0.136375,-0.21671 0.05387,-0.12579 0.07218,-0.29634 0.02055,-0.46144 -0.04851,-0.20051 -0.15659,-0.37024 -0.306377,-0.4689 -0.152718,-0.10059 -0.325438,-0.13083 -0.489456,-0.1289 l -2.6605793,-9.6e-4 c -0.1758918,-9.6e-4 -0.4263245,0.24435 -0.5470823,0.48108 z"
           id="path1389" />
        <path
           style="color:#000000;font-style:normal;font-variant:normal;font-weight:normal;font-stretch:normal;font-size:medium;line-height:normal;font-family:sans-serif;font-variant-ligatures:normal;font-variant-position:normal;font-variant-caps:normal;font-variant-numeric:normal;font-variant-alternates:normal;font-variant-east-asian:normal;font-feature-settings:normal;font-variation-settings:normal;text-indent:0;text-align:start;text-decoration:none;text-decoration-line:none;text-decoration-style:solid;text-decoration-color:#000000;letter-spacing:normal;word-spacing:normal;text-transform:none;writing-mode:lr-tb;direction:ltr;text-orientation:mixed;dominant-baseline:auto;baseline-shift:baseline;text-anchor:start;white-space:normal;shape-padding:0;shape-margin:0;inline-size:0;clip-rule:nonzero;display:inline;overflow:visible;visibility:visible;isolation:auto;mix-blend-mode:normal;color-interpolation:sRGB;color-interpolation-filters:linearRGB;solid-color:#000000;solid-opacity:1;vector-effect:none;fill:#aabfd0;fill-opacity:1;fill-rule:nonzero;stroke:none;stroke-width:0.420622;stroke-linecap:round;stroke-linejoin:round;stroke-miterlimit:1.5;stroke-dasharray:none;stroke-dashoffset:0;stroke-opacity:1;color-rendering:auto;image-rendering:auto;shape-rendering:auto;text-rendering:auto;enable-background:accumulate;stop-color:#000000"
           d="m 1.8945312,264.64453 a 0.26460996,0.26460996 0 0 0 -0.2363281,0.38281 l 0.5292969,1.0586 a 0.26460996,0.26460996 0 0 0 0.2363281,0.14648 h 0.7929688 a 0.26460996,0.26460996 0 0 0 0.2382812,-0.14648 l 0.5292969,-1.0586 a 0.26460996,0.26460996 0 0 0 -0.2382812,-0.38281 z"
           id="path1454" />
        <path
           id="path1593"
           style="fill:#7d8e9e;fill-opacity:1;stroke:none;stroke-width:0.420622;stroke-linecap:round;stroke-linejoin:round;stroke-miterlimit:1.5"
           d="m 1.894458,264.64435 a 0.26460996,0.26460996 0 0 0 -0.2361613,0.38292 l 0.2103231,0.42064 H 3.77393 l 0.2103231,-0.42064 a 0.26460996,0.26460996 0 0 0 -0.2382285,-0.38292 z" />
        <path
           style="color:#000000;font-style:normal;font-variant:normal;font-weight:normal;font-stretch:normal;font-size:medium;line-height:normal;font-family:sans-serif;font-variant-ligatures:normal;font-variant-position:normal;font-variant-caps:normal;font-variant-numeric:normal;font-variant-alternates:normal;font-variant-east-asian:normal;font-feature-settings:normal;font-variation-settings:normal;text-indent:0;text-align:start;text-decoration:none;text-decoration-line:none;text-decoration-style:solid;text-decoration-color:#000000;letter-spacing:normal;word-spacing:normal;text-transform:none;writing-mode:lr-tb;direction:ltr;text-orientation:mixed;dominant-baseline:auto;baseline-shift:baseline;text-anchor:start;white-space:normal;shape-padding:0;shape-margin:0;inline-size:0;clip-rule:nonzero;display:inline;overflow:visible;visibility:visible;isolation:auto;mix-blend-mode:normal;color-interpolation:sRGB;color-interpolation-filters:linearRGB;solid-color:#000000;solid-opacity:1;vector-effect:none;fill:#f5f6e8;fill-opacity:1;fill-rule:nonzero;stroke:none;stroke-width:0.420622;stroke-linecap:round;stroke-linejoin:round;stroke-miterlimit:1.5;stroke-dasharray:none;stroke-dashoffset:0;stroke-opacity:1;color-rendering:auto;image-rendering:auto;shape-rendering:auto;text-rendering:auto;enable-background:accumulate;stop-color:#000000"
           d="m 1.4257812,252.8457 c -0.47188939,0 -0.86132805,0.38748 -0.86132808,0.85938 v 10.60937 c 3e-8,0.4719 0.38943333,0.85938 0.86132808,0.85938 H 12.324219 a 0.26460996,0.26460996 0 0 0 0.255859,-0.19922 l 1.25586,-4.92773 a 0.26460996,0.26460996 0 0 0 0.0078,-0.0664 v -6.27539 c 0,-0.4719 -0.389439,-0.85938 -0.861328,-0.85938 z"
           id="path1468" />
        <path
           id="path1598"
           style="fill:#deded2;fill-opacity:1;stroke:none;stroke-width:0.420622;stroke-linecap:round;stroke-linejoin:round;stroke-miterlimit:1.5"
           d="m 0.7735962,255.22011 c -0.0813405,0.003 -0.14867461,0.0109 -0.20928955,0.0212 v 1.89859 c 2.45678905,-0.28068 4.17777715,0.55841 6.12624115,2.11719 0.5855364,0.46843 0.876364,1.54465 1.4769126,2.08514 0.571572,0.51441 1.4030408,1.3416 1.651062,2.08566 0.1700398,0.51012 0.4335376,1.15548 0.7725626,1.74615 h 1.733228 a 0.26460996,0.26460996 0 0 0 0.255798,-0.19947 l 1.255737,-4.92787 a 0.26460996,0.26460996 0 0 0 0.0078,-0.0661 v -4.69067 c -2.539902,-0.12034 -10.113681,0.0574 -11.2804491,0.0574 -0.2504817,0 -1.2268324,-0.145 -1.7895549,-0.12713 z" />
        <path
           style="color:#000000;font-style:normal;font-variant:normal;font-weight:normal;font-stretch:normal;font-size:medium;line-height:normal;font-family:sans-serif;font-variant-ligatures:normal;font-variant-position:normal;font-variant-caps:normal;font-variant-numeric:normal;font-variant-alternates:normal;font-variant-east-asian:normal;font-feature-settings:normal;font-variation-settings:normal;text-indent:0;text-align:start;text-decoration:none;text-decoration-line:none;text-decoration-style:solid;text-decoration-color:#000000;letter-spacing:normal;word-spacing:normal;text-transform:none;writing-mode:lr-tb;direction:ltr;text-orientation:mixed;dominant-baseline:auto;baseline-shift:baseline;text-anchor:start;white-space:normal;shape-padding:0;shape-margin:0;inline-size:0;clip-rule:nonzero;display:inline;overflow:visible;visibility:visible;isolation:auto;mix-blend-mode:normal;color-interpolation:sRGB;color-interpolation-filters:linearRGB;solid-color:#000000;solid-opacity:1;vector-effect:none;fill:#1d5c87;fill-opacity:1;fill-rule:nonzero;stroke:none;stroke-width:0.420622;stroke-linecap:round;stroke-linejoin:round;stroke-miterlimit:1.5;stroke-dasharray:none;stroke-dashoffset:0;stroke-opacity:1;color-rendering:auto;image-rendering:auto;shape-rendering:auto;text-rendering:auto;enable-background:accumulate;stop-color:#000000"
           d="m 12.701172,259.51562 c -0.344845,0 -0.626954,0.28703 -0.626953,0.63086 v 0.92774 a 0.26460996,0.26460996 0 0 0 0.265625,0.26562 h 1.279297 a 0.26460996,0.26460996 0 0 0 0.263671,-0.26562 v -0.92774 c 1e-6,-0.34383 -0.282108,-0.63086 -0.626953,-0.63086 z"
           id="path1538" />
        <path
           sodipodi:nodetypes="cccssccccc"
           style="color:#000000;font-style:normal;font-variant:normal;font-weight:normal;font-stretch:normal;font-size:medium;line-height:normal;font-family:sans-serif;font-variant-ligatures:normal;font-variant-position:normal;font-variant-caps:normal;font-variant-numeric:normal;font-variant-alternates:normal;font-variant-east-asian:normal;font-feature-settings:normal;font-variation-settings:normal;text-indent:0;text-align:start;text-decoration:none;text-decoration-line:none;text-decoration-style:solid;text-decoration-color:#000000;letter-spacing:normal;word-spacing:normal;text-transform:none;writing-mode:lr-tb;direction:ltr;text-orientation:mixed;dominant-baseline:auto;baseline-shift:baseline;text-anchor:start;white-space:normal;shape-padding:0;shape-margin:0;inline-size:0;clip-rule:nonzero;display:inline;overflow:visible;visibility:visible;isolation:auto;mix-blend-mode:normal;color-interpolation:sRGB;color-interpolation-filters:linearRGB;solid-color:#000000;solid-opacity:1;vector-effect:none;fill:#d0e2ee;fill-opacity:1;fill-rule:nonzero;stroke:none;stroke-width:0.420622;stroke-linecap:round;stroke-linejoin:round;stroke-miterlimit:1.5;stroke-dasharray:none;stroke-dashoffset:0;stroke-opacity:1;color-rendering:auto;image-rendering:auto;shape-rendering:auto;text-rendering:auto;enable-background:accumulate;stop-color:#000000"
           d="m 12.324219,260.8974 c -0.14617,-5.5e-4 -0.265107,0.11562 -0.265625,0.25945 v 4.2953 c 1e-6,0.42783 0.358183,0.78027 0.792968,0.78027 h 2.722657 c 0.434785,0 0.79297,-0.35244 0.792969,-0.78027 -0.01268,-1.03242 0.02613,-2.09706 -0.01758,-3.11726 -0.261552,-0.64956 -0.735028,-1.03461 -1.242187,-1.22997 -0.504563,-0.19435 -1.038999,-0.21794 -1.488281,-0.20755 z"
           id="path1552" />
        <path
           style="color:#000000;font-style:normal;font-variant:normal;font-weight:normal;font-stretch:normal;font-size:medium;line-height:normal;font-family:sans-serif;font-variant-ligatures:normal;font-variant-position:normal;font-variant-caps:normal;font-variant-numeric:normal;font-variant-alternates:normal;font-variant-east-asian:normal;font-feature-settings:normal;font-variation-settings:normal;text-indent:0;text-align:start;text-decoration:none;text-decoration-line:none;text-decoration-style:solid;text-decoration-color:#000000;letter-spacing:normal;word-spacing:normal;text-transform:none;writing-mode:lr-tb;direction:ltr;text-orientation:mixed;dominant-baseline:auto;baseline-shift:baseline;text-anchor:start;white-space:normal;shape-padding:0;shape-margin:0;inline-size:0;clip-rule:nonzero;display:inline;overflow:visible;visibility:visible;isolation:auto;mix-blend-mode:normal;color-interpolation:sRGB;color-interpolation-filters:linearRGB;solid-color:#000000;solid-opacity:1;vector-effect:none;fill:#1d5c87;fill-opacity:1;fill-rule:nonzero;stroke:none;stroke-width:0.420622;stroke-linecap:round;stroke-linejoin:round;stroke-miterlimit:1.5;stroke-dasharray:none;stroke-dashoffset:0;stroke-opacity:1;color-rendering:auto;image-rendering:auto;shape-rendering:auto;text-rendering:auto;enable-background:accumulate;stop-color:#000000"
           d="m 13.619141,263.07617 a 0.26460996,0.26460996 0 0 0 -0.265625,0.26367 v 1.29493 a 0.26460996,0.26460996 0 0 0 0.265625,0.26562 h 1.292968 a 0.26460996,0.26460996 0 0 0 0.265625,-0.26562 v -1.29493 a 0.26460996,0.26460996 0 0 0 -0.265625,-0.26367 z"
           id="path1566" />
        <path
           id="path1576"
           style="fill:#deded2;fill-opacity:1;stroke:none;stroke-width:0.420622;stroke-linecap:round;stroke-linejoin:round;stroke-miterlimit:1.5"
           d="m 1.4257528,252.84558 c -0.4718894,0 -0.86144612,0.38748 -0.86144615,0.85938 v 0.50687 l 7.85262835,0.0287 c 0.3548179,0.001 0.6450444,0.2813 0.6450444,0.63612 v 0.46077 l 1.8432986,0.031 -0.10387,-2.52285 z"
           sodipodi:nodetypes="sscsscccs" />
        <path
           id="path1586"
           style="fill:#deded2;fill-opacity:1;stroke:none;stroke-width:0.420622;stroke-linecap:round;stroke-linejoin:round;stroke-miterlimit:1.5"
           d="m 10.868071,252.84558 0.01447,1.37201 0.826633,-0.0107 a 0.81998184,0.81998184 0 0 1 0.830479,0.83509 l -0.0061,0.32699 1.309998,-0.014 v -1.65003 c 0,-0.4719 -0.389557,-0.85937 -0.861446,-0.85937 z" />
        <path
           style="color:#000000;font-style:normal;font-variant:normal;font-weight:normal;font-stretch:normal;font-size:medium;line-height:normal;font-family:sans-serif;font-variant-ligatures:normal;font-variant-position:normal;font-variant-caps:normal;font-variant-numeric:normal;font-variant-alternates:normal;font-variant-east-asian:normal;font-feature-settings:normal;font-variation-settings:normal;text-indent:0;text-align:start;text-decoration:none;text-decoration-line:none;text-decoration-style:solid;text-decoration-color:#000000;letter-spacing:normal;word-spacing:normal;text-transform:none;writing-mode:lr-tb;direction:ltr;text-orientation:mixed;dominant-baseline:auto;baseline-shift:baseline;text-anchor:start;white-space:normal;shape-padding:0;shape-margin:0;inline-size:0;clip-rule:nonzero;display:inline;overflow:visible;visibility:visible;isolation:auto;mix-blend-mode:normal;color-interpolation:sRGB;color-interpolation-filters:linearRGB;solid-color:#000000;solid-opacity:1;vector-effect:none;fill:#aabfd0;fill-opacity:1;fill-rule:nonzero;stroke:none;stroke-width:0.485061;stroke-linecap:round;stroke-linejoin:round;stroke-miterlimit:1.5;stroke-dasharray:none;stroke-dashoffset:0;stroke-opacity:1;color-rendering:auto;image-rendering:auto;shape-rendering:auto;text-rendering:auto;enable-background:accumulate;stop-color:#000000"
           d="m 7.1855469,256.22266 c -2.1870381,0 -3.9648465,1.77976 -3.9648438,3.96679 9.2e-6,2.18703 1.7778141,3.9668 3.9648438,3.9668 2.1870294,0 3.9667881,-1.77977 3.9667971,-3.9668 2e-6,-2.18703 -1.7797594,-3.96679 -3.9667971,-3.96679 z"
           id="path1517" />
        <path
           id="path1503"
           style="color:#000000;font-style:normal;font-variant:normal;font-weight:normal;font-stretch:normal;font-size:medium;line-height:normal;font-family:sans-serif;font-variant-ligatures:normal;font-variant-position:normal;font-variant-caps:normal;font-variant-numeric:normal;font-variant-alternates:normal;font-variant-east-asian:normal;font-feature-settings:normal;font-variation-settings:normal;text-indent:0;text-align:start;text-decoration:none;text-decoration-line:none;text-decoration-style:solid;text-decoration-color:#000000;letter-spacing:normal;word-spacing:normal;text-transform:none;writing-mode:lr-tb;direction:ltr;text-orientation:mixed;dominant-baseline:auto;baseline-shift:baseline;text-anchor:start;white-space:normal;shape-padding:0;shape-margin:0;inline-size:0;clip-rule:nonzero;display:inline;overflow:visible;visibility:visible;isolation:auto;mix-blend-mode:normal;color-interpolation:sRGB;color-interpolation-filters:linearRGB;solid-color:#000000;solid-opacity:1;vector-effect:none;fill:#f5f6e8;fill-opacity:1;fill-rule:nonzero;stroke:none;stroke-width:0.485061;stroke-linecap:round;stroke-linejoin:round;stroke-miterlimit:1.5;stroke-dasharray:none;stroke-dashoffset:0;stroke-opacity:1;color-rendering:auto;image-rendering:auto;shape-rendering:auto;text-rendering:auto;enable-background:accumulate;stop-color:#000000"
           d="m 7.1854927,257.79749 c -1.2818602,0 -2.3330166,1.01149 -2.3965935,2.27906 a 0.28213363,0.28213363 0 0 0 -0.00144,0.0201 l 0.00478,0.2002 -0.00478,0.20019 a 0.28213363,0.28213363 0 0 0 0.00144,0.0201 c 0.063577,1.26757 1.1147333,2.27906 2.3965935,2.27906 1.2592797,0 2.2983351,-0.97547 2.3946823,-2.21216 a 0.28213363,0.28213363 0 0 0 0,-0.0344 l -0.011946,-0.25274 0.011946,-0.25275 a 0.28213363,0.28213363 0 0 0 0,-0.0344 C 9.4838278,258.77298 8.4447724,257.7975 7.1854927,257.7975 Z" />
        <path
           sodipodi:nodetypes="cccccccccc"
           id="path1489"
           style="color:#000000;font-style:normal;font-variant:normal;font-weight:normal;font-stretch:normal;font-size:medium;line-height:normal;font-family:sans-serif;font-variant-ligatures:normal;font-variant-position:normal;font-variant-caps:normal;font-variant-numeric:normal;font-variant-alternates:normal;font-variant-east-asian:normal;font-feature-settings:normal;font-variation-settings:normal;text-indent:0;text-align:start;text-decoration:none;text-decoration-line:none;text-decoration-style:solid;text-decoration-color:#000000;letter-spacing:normal;word-spacing:normal;text-transform:none;writing-mode:lr-tb;direction:ltr;text-orientation:mixed;dominant-baseline:auto;baseline-shift:baseline;text-anchor:start;white-space:normal;shape-padding:0;shape-margin:0;inline-size:0;clip-rule:nonzero;display:inline;overflow:visible;visibility:visible;isolation:auto;mix-blend-mode:normal;color-interpolation:sRGB;color-interpolation-filters:linearRGB;solid-color:#000000;solid-opacity:1;vector-effect:none;fill:#87d1ee;fill-opacity:1;fill-rule:nonzero;stroke:none;stroke-width:0.485061;stroke-linecap:round;stroke-linejoin:round;stroke-miterlimit:1.5;stroke-dasharray:none;stroke-dashoffset:0;stroke-opacity:1;color-rendering:auto;image-rendering:auto;shape-rendering:auto;text-rendering:auto;enable-background:accumulate;stop-color:#000000"
           d="m 6.1433309,260.14203 c -0.3709506,0.033 -0.7436806,0.15563 -1.0912908,0.44263 -0.045175,0.0374 -0.074318,0.089 -0.08702,0.14474 0.090992,1.14727 1.0516026,2.05338 2.2207633,2.05338 1.4065474,0.004 2.3233704,-1.23288 2.2141032,-2.32243 l 0.00755,-0.16427 c -0.038807,-0.003 -0.079182,0.003 -0.1185414,0.0195 -0.518655,0.22047 -1.373292,0.0575 -2.0609322,-0.0808 -0.2578651,-0.0519 -0.5305695,-0.0969 -0.7149537,-0.10039 -0.1843842,-0.004 -0.2769386,-6.8e-4 -0.3696762,0.008 z" />
        <path
           id="path1603"
           style="color:#000000;font-style:normal;font-variant:normal;font-weight:normal;font-stretch:normal;font-size:medium;line-height:normal;font-family:sans-serif;font-variant-ligatures:normal;font-variant-position:normal;font-variant-caps:normal;font-variant-numeric:normal;font-variant-alternates:normal;font-variant-east-asian:normal;font-feature-settings:normal;font-variation-settings:normal;text-indent:0;text-align:start;text-decoration:none;text-decoration-line:none;text-decoration-style:solid;text-decoration-color:#000000;letter-spacing:normal;word-spacing:normal;text-transform:none;writing-mode:lr-tb;direction:ltr;text-orientation:mixed;dominant-baseline:auto;baseline-shift:baseline;text-anchor:start;white-space:normal;shape-padding:0;shape-margin:0;inline-size:0;clip-rule:nonzero;display:inline;overflow:visible;visibility:visible;isolation:auto;mix-blend-mode:normal;color-interpolation:sRGB;color-interpolation-filters:linearRGB;solid-color:#000000;solid-opacity:1;vector-effect:none;fill:#7d8e9e;fill-opacity:1;fill-rule:nonzero;stroke:none;stroke-width:0.485061;stroke-linecap:round;stroke-linejoin:round;stroke-miterlimit:1.5;stroke-dasharray:none;stroke-dashoffset:0;stroke-opacity:1;color-rendering:auto;image-rendering:auto;shape-rendering:auto;text-rendering:auto;enable-background:accumulate;stop-color:#000000"
           d="m 7.1856083,256.22262 c -0.1798095,0 -0.3556501,0.0165 -0.5291667,0.0398 1.9372503,0.26008 3.4375184,1.91968 3.4375164,3.9269 -8e-6,2.00723 -1.500261,3.66734 -3.4375164,3.92741 0.1735082,0.0233 0.3493663,0.0398 0.5291667,0.0398 2.1870294,0 3.9666747,-1.78017 3.9666837,-3.9672 2e-6,-2.18703 -1.779646,-3.96669 -3.9666837,-3.96669 z" />
        <path
           id="path1148"
           style="color:#000000;font-style:normal;font-variant:normal;font-weight:normal;font-stretch:normal;font-size:medium;line-height:normal;font-family:sans-serif;font-variant-ligatures:normal;font-variant-position:normal;font-variant-caps:normal;font-variant-numeric:normal;font-variant-alternates:normal;font-variant-east-asian:normal;font-feature-settings:normal;font-variation-settings:normal;text-indent:0;text-align:start;text-decoration:none;text-decoration-line:none;text-decoration-style:solid;text-decoration-color:#000000;letter-spacing:normal;word-spacing:normal;text-transform:none;writing-mode:lr-tb;direction:ltr;text-orientation:mixed;dominant-baseline:auto;baseline-shift:baseline;text-anchor:start;white-space:normal;shape-padding:0;shape-margin:0;inline-size:0;clip-rule:nonzero;display:inline;overflow:visible;visibility:visible;isolation:auto;mix-blend-mode:normal;color-interpolation:sRGB;color-interpolation-filters:linearRGB;solid-color:#000000;solid-opacity:1;vector-effect:none;fill:#aabfd0;fill-opacity:1;fill-rule:nonzero;stroke:none;stroke-width:0.420622;stroke-linecap:round;stroke-linejoin:round;stroke-miterlimit:1.5;stroke-dasharray:none;stroke-dashoffset:0;stroke-opacity:1;color-rendering:auto;image-rendering:auto;shape-rendering:auto;text-rendering:auto;enable-background:accumulate;stop-color:#000000"
           d="m 12.324314,260.89732 c -0.14617,-5.5e-4 -0.265099,0.1155 -0.265617,0.25933 v 0.78205 h 0.502295 c 0.449282,-0.0104 0.983719,0.0131 1.488282,0.20746 0.507159,0.19536 0.980233,0.58047 1.241785,1.23004 0.04006,0.93493 0.0135,1.90559 0.01809,2.85616 h 0.2651 c 0.434785,0 0.792718,-0.35219 0.792717,-0.78001 -0.01268,-1.03242 0.02614,-2.09734 -0.01757,-3.11754 -0.261552,-0.64956 -0.734626,-1.03466 -1.241785,-1.23002 -0.504563,-0.19435 -1.039,-0.21785 -1.488282,-0.20747 z" />
      </g>
      <path
         sodipodi:nodetypes="ssscscscsssscccccccssscccccscssccccssscscsccsccssscccccccscsscccccccscssscccccccsssscccccccscssccssscsssccssscscscscsssssssscscccsscsccsscscscssccssssscscccsccssscccssscccscccccssssccccccccccccccccccccccc"
         d="M 6.4435264,250.04885 C 6.2779679,249.89637 6.0588537,249.82819 5.8399457,249.82819 H 3.2401122 c -0.2419317,0 -0.4520034,0.12177 -0.5839437,0.27544 -0.13194,0.15365 -0.2067724,0.33209 -0.2656168,0.50384 -0.1629213,0.47551 -0.056477,0.96849 0.1477946,1.44591 -0.084951,0.12908 -0.1363513,0.26978 -0.1596801,0.42323 -0.020675,0.13599 0.00885,0.25887 0.063045,0.36897 H 1.4257528 c -0.47188942,0 -0.86144613,0.38748 -0.86144615,0.85938 v 10.60968 c 2e-8,0.4719 0.38955139,0.85938 0.86144615,0.85938 h 0.3059244 l 0.4557861,0.91209 c 0.044709,0.0896 0.1360132,0.14608 0.2361613,0.14625 H 3.216858 c 0.1008515,5.8e-4 0.1932062,-0.056 0.2382284,-0.14625 l 0.4557861,-0.91209 h 8.1478235 v 0.26562 c 1e-6,0.43479 0.357931,0.79272 0.792716,0.79272 h 2.722831 c 0.434786,0 0.792718,-0.35793 0.792717,-0.79272 v -3.07061 c 3.44e-4,-0.0334 -0.0056,-0.0665 -0.01757,-0.0977 -0.261552,-0.66014 -0.734626,-1.05151 -1.241785,-1.25005 -0.409818,-0.16043 -0.847994,-0.20439 -1.235592,-0.21033 v -0.66456 c 0,-0.0737 -0.01547,-0.14373 -0.03927,-0.2098 l 0.01086,-6.23166 c 8.22e-4,-0.4719 -0.389041,-0.85938 -0.86093,-0.85938 h -1.090377 c 0.04577,-0.0951 0.07835,-0.19608 0.09974,-0.29869 0.09365,-0.44932 0.09078,-0.9555 -0.151412,-1.43764 0.06534,-0.0956 0.133185,-0.21255 0.154511,-0.40127 0.001,-0.27394 -0.09334,-0.50665 -0.2589,-0.65913 -0.165558,-0.15248 -0.384672,-0.22066 -0.603581,-0.22066 H 8.5333249 c -0.2419316,0 -0.4540705,0.12177 -0.5860108,0.27544 -0.13194,0.15365 -0.2067722,0.33209 -0.2656168,0.50384 -0.1629214,0.47551 -0.056477,0.96849 0.1477947,1.44591 -0.084951,0.12908 -0.1363507,0.26978 -0.1596803,0.42323 -0.020685,0.13605 0.0093,0.25884 0.064079,0.36897 H 6.6001095 c 0.045272,-0.0951 0.077828,-0.19607 0.099219,-0.29869 0.093653,-0.44932 0.092022,-0.9555 -0.1498616,-1.43764 0.065337,-0.0956 0.1331831,-0.21255 0.1545109,-0.40127 0.00103,-0.27394 -0.094892,-0.50665 -0.2604511,-0.65913 z m -3.2034142,0.30851 h 2.5998414 c 0.112441,0 0.1943986,0.0326 0.2459797,0.0801 0.048057,0.0443 0.079402,0.11624 0.084233,0.23823 -0.00798,0.0494 -0.052607,0.10574 -0.084233,0.15245 H 3.4416504 c -0.1469419,-5.3e-4 -0.2661993,0.11868 -0.265617,0.26562 5.028e-4,0.14618 0.119441,0.26413 0.265617,0.26355 h 2.642216 c 0.1746064,0.35077 0.175623,0.70811 0.097668,1.0821 -0.026172,0.12557 -0.077797,0.23305 -0.1364257,0.29714 -0.058629,0.0641 -0.112834,0.0915 -0.2051553,0.0915 H 3.2401122 c -0.079069,0 -0.1812048,-0.0472 -0.2516641,-0.11731 -0.070459,-0.07 -0.086936,-0.14981 -0.0863,-0.15399 0.017878,-0.1176 0.053352,-0.14887 0.091984,-0.19948 h 2.64635 c 0.1454097,-5.3e-4 0.2635599,-0.11814 0.2640666,-0.26355 5.821e-4,-0.14617 -0.1178878,-0.26511 -0.2640666,-0.26561 H 3.0179036 c -0.1681295,-0.39999 -0.2292088,-0.75109 -0.1271241,-1.04903 0.048552,-0.14171 0.1075275,-0.26382 0.1658814,-0.33177 0.058354,-0.068 0.094034,-0.0899 0.1834513,-0.0899 z m 5.2932169,0 h 2.5993249 c 0.112443,0 0.192849,0.0326 0.24443,0.0801 0.04806,0.0443 0.07888,0.11624 0.08371,0.23823 -0.008,0.0495 -0.0519,0.10554 -0.08371,0.15245 H 8.7322834 c -0.1461786,5.3e-4 -0.2641288,0.11944 -0.2635496,0.26562 5.027e-4,0.1454 0.1181364,0.26305 0.2635496,0.26355 h 2.6442836 c 0.174275,0.35077 0.174073,0.70811 0.09612,1.0821 -0.02617,0.12557 -0.07831,0.23305 -0.136942,0.29714 -0.05863,0.0641 -0.110767,0.0915 -0.203089,0.0915 H 8.5333291 c -0.079069,0 -0.1817216,-0.0472 -0.252181,-0.11731 -0.070459,-0.07 -0.088485,-0.14981 -0.08785,-0.15399 0.017899,-0.11774 0.055297,-0.14878 0.094051,-0.19948 h 2.6442839 c 0.146176,5.3e-4 0.265113,-0.11737 0.265617,-0.26355 5.82e-4,-0.14693 -0.118675,-0.26619 -0.265617,-0.26561 H 8.3090535 c -0.167785,-0.39999 -0.2276586,-0.75109 -0.1255736,-1.04903 0.048552,-0.14171 0.1075271,-0.26382 0.1658813,-0.33177 0.058354,-0.068 0.09455,-0.0899 0.1839679,-0.0899 z m -7.1075763,3.01583 h 9.2009892 v 1.74615 H 1.0939901 v -1.41438 c 0,-0.18593 0.145848,-0.33177 0.3317627,-0.33177 z m 9.7286052,0 h 1.828312 c 0.185914,0 0.331763,0.14584 0.331763,0.33177 v 1.41438 h -2.160075 z m -9.2599,0.68937 c -0.1453192,5.5e-4 -0.2629832,0.11823 -0.2635498,0.26355 -5.715e-4,0.14612 0.117424,0.26504 0.2635498,0.26561 0.1469336,5.9e-4 0.2661918,-0.11868 0.2656168,-0.26561 -5.688e-4,-0.14613 -0.119491,-0.26412 -0.2656168,-0.26355 z m 1.05885,0 c -0.1455211,2.9e-4 -0.2634983,0.11803 -0.2640666,0.26355 -5.821e-4,0.14632 0.1177388,0.26533 0.2640666,0.26561 0.1461257,-5.8e-4 0.2641218,-0.11949 0.26355,-0.26561 -5.556e-4,-0.14532 -0.1182308,-0.26299 -0.26355,-0.26355 z m 1.0583335,0 c -0.1461257,-5.8e-4 -0.2650472,0.11742 -0.2656168,0.26355 -5.821e-4,0.14693 0.1186831,0.26619 0.2656168,0.26561 0.1461256,-5.8e-4 0.2641216,-0.11949 0.2635498,-0.26561 -5.556e-4,-0.14532 -0.1182306,-0.26299 -0.2635498,-0.26355 z m 8.2010505,0 c -0.14532,5.5e-4 -0.262984,0.11823 -0.26355,0.26355 -5.82e-4,0.14612 0.117424,0.26504 0.26355,0.26561 0.146934,5.9e-4 0.266191,-0.11868 0.265616,-0.26561 -5.82e-4,-0.14613 -0.119491,-0.26412 -0.265616,-0.26355 z m -11.1187019,1.58595 h 9.7968179 2.423625 v 3.87315 c -0.02082,-0.002 -0.0412,-0.006 -0.06253,-0.006 h -0.56069 c -0.34553,10e-6 -0.63252,0.28544 -0.632519,0.63097 v 0.92759 3.57033 H 1.4257528 c -0.1859094,0 -0.3317627,-0.14379 -0.3317627,-0.3297 z m 6.0916177,0.57412 c -2.1870382,0 -3.9651351,1.77965 -3.9651324,3.96668 9.2e-6,2.18703 1.7781027,3.96669 3.9651324,3.96669 2.1870294,0 3.9666742,-1.77966 3.9666832,-3.96669 2e-6,-2.18703 -1.7796456,-3.96668 -3.9666832,-3.96668 z m 0,0.61133 c 1.8572422,0 3.3574202,1.49811 3.3574182,3.35535 -8e-6,1.85725 -1.5001834,3.35741 -3.3574182,3.35742 -1.8572351,0 -3.3553427,-1.50017 -3.3553506,-3.35742 -2.2e-6,-1.85724 1.4981086,-3.35535 3.3553506,-3.35535 z m 0,0.75965 c -1.430667,0 -2.5957136,1.16504 -2.595707,2.5957 5.8e-6,1.43067 1.1650488,2.59778 2.595707,2.59778 1.4306584,0 2.5977683,-1.16711 2.5977744,-2.59778 6.6e-6,-1.43066 -1.1671072,-2.5957 -2.5977744,-2.5957 z m 0,0.60926 c 1.0207405,0 1.8565378,0.76191 1.9730061,1.75028 -0.5635715,0.15291 -1.2043855,-0.01 -1.9166787,-0.15244 -0.3985988,-0.0798 -0.8271759,-0.14363 -1.2578043,-0.10542 -0.2546734,0.0226 -0.5099079,0.083 -0.7601604,0.19585 0.1432774,-0.95787 0.9624542,-1.68826 1.9616373,-1.68827 z m 5.5056072,1.84227 h 0.56069 c 0.05955,0 0.101802,0.0417 0.101802,0.10128 v 0.66405 h -0.765844 v -0.66405 c -1e-6,-0.0595 0.04381,-0.10128 0.103352,-0.10128 z m -6.3799723,0.24236 c 0.2565587,0.009 0.5253283,0.0558 0.8118366,0.11317 0.6254988,0.12521 1.3144215,0.31682 2.0112469,0.18397 -0.182559,0.91004 -0.9833028,1.59112 -1.9487184,1.59112 -0.9657676,0 -1.7653628,-0.68161 -1.947168,-1.59215 0.3442459,-0.2349 0.6952305,-0.30932 1.0728029,-0.29611 z m 6.2766203,1.05213 h 1.031461 c 0.0019,2e-5 0.0038,2e-5 0.0057,0 0.419655,-0.0102 0.889534,0.0176 1.289327,0.17415 0.391559,0.15328 0.712851,0.42482 0.923458,0.93328 v 2.99258 c 0,0.1488 -0.114749,0.26355 -0.26355,0.26355 h -2.72283 c -0.148803,0 -0.263549,-0.11474 -0.263549,-0.26355 z m 1.031461,1.73633 c -0.146321,-5.6e-4 -0.265317,0.11775 -0.265617,0.26407 v 1.29449 c -5.55e-4,0.14693 0.118689,0.26618 0.265617,0.26562 h 1.292944 c 0.146928,5.5e-4 0.266177,-0.11869 0.265617,-0.26562 v -1.29449 c -2.91e-4,-0.14632 -0.119296,-0.26463 -0.265617,-0.26407 z m 0.26355,0.52968 h 0.765328 v 0.76533 h -0.765328 z m -11.5605351,1.56838 h 0.9958048 l -0.2635498,0.52917 H 2.5879557 Z"
         style="color:#000000;font-style:normal;font-variant:normal;font-weight:normal;font-stretch:normal;font-size:medium;line-height:normal;font-family:sans-serif;font-variant-ligatures:normal;font-variant-position:normal;font-variant-caps:normal;font-variant-numeric:normal;font-variant-alternates:normal;font-variant-east-asian:normal;font-feature-settings:normal;font-variation-settings:normal;text-indent:0;text-align:start;text-decoration:none;text-decoration-line:none;text-decoration-style:solid;text-decoration-color:#000000;letter-spacing:normal;word-spacing:normal;text-transform:none;writing-mode:lr-tb;direction:ltr;text-orientation:mixed;dominant-baseline:auto;baseline-shift:baseline;text-anchor:start;white-space:normal;shape-padding:0;shape-margin:0;inline-size:0;clip-rule:nonzero;display:inline;overflow:visible;visibility:visible;opacity:1;isolation:auto;mix-blend-mode:normal;color-interpolation:sRGB;color-interpolation-filters:linearRGB;solid-color:#000000;solid-opacity:1;vector-effect:none;fill:#000000;fill-opacity:1;fill-rule:nonzero;stroke:none;stroke-width:0.420622;stroke-linecap:round;stroke-linejoin:round;stroke-miterlimit:1.5;stroke-dasharray:none;stroke-dashoffset:0;stroke-opacity:1;color-rendering:auto;image-rendering:auto;shape-rendering:auto;text-rendering:auto;enable-background:accumulate;stop-color:#000000;stop-opacity:1"
         id="path1309" />
    </g>
  </g>
</svg>
